<?xml version="1.0" standalone="no"?>
<!DOCTYPE svg PUBLIC "-//W3C//DTD SVG 20010904//EN"
 "http://www.w3.org/TR/2001/REC-SVG-20010904/DTD/svg10.dtd">
<svg version="1.0" xmlns="http://www.w3.org/2000/svg"
 width="1280.000000pt" height="640.000000pt" viewBox="0 0 1280.000000 640.000000"
 preserveAspectRatio="xMidYMid meet">
<g transform="translate(0.000000,640.000000) scale(0.100000,-0.100000)"
fill="#000000" stroke="none">
<path d="M2716 5224 c-143 -32 -263 -98 -361 -198 -116 -120 -174 -253 -183
-419 -3 -80 -8 -100 -21 -104 -114 -36 -212 -120 -259 -221 -23 -50 -27 -70
-28 -160 l0 -103 -31 -18 c-65 -40 -100 -118 -88 -197 6 -40 4 -46 -27 -73
-31 -27 -33 -33 -31 -88 4 -130 14 -182 36 -198 33 -23 73 -19 96 11 12 15 21
32 21 38 0 7 14 20 30 29 33 20 60 64 60 97 0 14 6 20 22 20 39 0 109 41 134
80 l25 37 51 -14 c95 -24 192 -12 286 36 43 22 121 92 138 124 9 16 14 16 89
-4 215 -56 454 -8 628 127 44 34 65 44 95 44 49 0 142 25 213 56 55 25 58 25
89 9 17 -9 63 -23 101 -31 85 -18 178 -6 253 32 48 24 51 25 63 7 31 -43 81
-87 128 -111 42 -22 65 -27 143 -29 89 -2 94 -3 118 -32 70 -83 222 -107 327
-52 l55 29 27 -28 c26 -27 83 -50 126 -50 37 0 108 39 126 71 15 25 24 29 59
29 45 0 88 26 99 60 4 11 15 20 25 20 28 0 69 41 74 73 14 82 -65 137 -125 88
-17 -13 -33 -17 -56 -14 -18 3 -46 0 -62 -6 -24 -11 -33 -9 -62 8 -24 15 -51
21 -91 21 -56 0 -57 1 -68 35 -19 57 -93 131 -156 154 -30 12 -65 21 -78 21
-19 0 -31 12 -54 54 -76 134 -225 188 -393 142 -24 -7 -29 -3 -48 37 -50 103
-185 196 -298 205 -52 4 -55 6 -87 56 -127 197 -359 297 -598 257 -64 -11 -78
-11 -113 5 -115 49 -297 66 -419 38z"/>
<path d="M2635 3542 c-116 -26 -179 -49 -278 -98 -98 -49 -160 -89 -195 -126
l-23 -25 66 -6 c99 -9 148 -35 170 -88 39 -95 15 -277 -57 -427 -97 -201 -361
-317 -528 -232 -32 16 -41 26 -38 43 2 16 9 21 24 20 20 -2 23 9 49 145 15 81
40 209 55 286 l27 138 -34 14 c-18 8 -44 31 -58 54 -33 52 -118 95 -224 114
-19 3 -32 3 -28 0 3 -4 0 -13 -8 -21 -8 -7 -17 -35 -21 -61 l-6 -47 -43 0
c-24 0 -47 -4 -52 -8 -4 -5 20 -144 53 -310 54 -273 62 -302 79 -302 27 0 31
-39 7 -63 -11 -11 -57 -32 -102 -47 -94 -31 -138 -66 -205 -159 -39 -56 -89
-144 -88 -156 1 -3 18 -13 39 -22 47 -21 28 -23 -43 -4 -48 13 -55 12 -108
-10 -77 -31 -153 -82 -219 -149 -58 -57 -126 -151 -126 -172 0 -10 69 -13 323
-13 l322 0 17 72 c70 288 423 391 631 183 57 -56 90 -119 107 -197 l11 -58 38
0 37 0 12 58 c16 78 46 135 102 192 147 151 387 153 533 4 58 -58 90 -118 107
-196 l11 -58 283 0 283 0 17 45 c22 56 89 125 153 156 68 32 188 33 255 0 64
-31 121 -88 150 -150 l23 -51 151 0 151 0 23 49 c29 63 91 124 155 153 76 34
181 32 259 -7 66 -33 116 -87 143 -151 l18 -44 152 0 152 0 19 44 c70 156 262
228 414 153 65 -32 122 -90 150 -153 l19 -44 272 0 272 0 18 44 c27 64 77 118
143 151 78 39 183 41 259 7 64 -29 126 -90 155 -153 l23 -49 151 0 151 0 22
48 c28 60 83 116 148 150 69 36 187 37 258 3 64 -31 131 -100 153 -156 l17
-45 153 0 153 0 22 50 c25 58 91 123 157 153 35 16 67 22 122 22 126 -1 215
-57 275 -175 l25 -50 270 0 269 0 28 56 c31 64 86 117 152 147 64 30 178 30
243 0 66 -30 132 -95 157 -153 l22 -50 152 0 152 0 19 45 c24 59 88 124 151
155 70 33 179 34 253 1 61 -27 144 -113 162 -166 l12 -35 151 0 152 0 22 48
c28 60 83 116 148 150 70 36 187 37 260 2 63 -31 127 -96 151 -155 l19 -45 82
0 c89 0 96 5 80 56 -8 26 -5 37 17 71 15 22 36 64 47 94 l20 53 -46 -43 c-69
-64 -83 -57 -116 58 -15 51 -31 97 -36 101 -28 26 -549 97 -1013 139 -75 7
-83 9 -39 10 137 3 762 -61 957 -98 50 -10 92 -16 92 -14 0 2 -9 45 -21 96
-51 230 -61 296 -63 407 l-1 114 27 10 c20 7 46 5 92 -6 l65 -15 -29 42 c-44
65 -130 155 -170 179 -66 41 -327 128 -521 175 -338 82 -858 144 -1209 145
-346 0 -493 -43 -691 -202 -89 -71 -199 -168 -199 -176 0 -2 24 1 53 6 28 6
70 8 91 5 27 -4 51 0 76 13 109 55 333 80 715 79 154 -1 321 -4 370 -8 53 -4
-51 -7 -250 -7 -403 -1 -637 -22 -788 -70 l-47 -16 7 -66 c12 -103 8 -447 -6
-542 -32 -220 -67 -356 -104 -411 -28 -42 -72 -57 -174 -61 l-77 -3 -39 125
c-21 69 -42 132 -46 140 -18 34 -469 99 -1021 149 -67 6 -80 9 -44 10 61 1
474 -33 659 -55 142 -17 354 -51 381 -61 15 -5 16 -2 11 23 -76 355 -96 496
-83 569 9 45 36 52 119 32 34 -9 63 -15 64 -13 4 4 -61 90 -106 141 -53 61
-100 91 -192 126 -398 149 -835 229 -1471 270 -346 22 -583 -17 -740 -121 -83
-54 -308 -240 -308 -253 0 -2 26 0 58 5 31 5 74 7 95 5 27 -4 48 0 70 13 90
53 336 80 712 79 154 -1 321 -4 370 -8 52 -3 -56 -7 -260 -7 -371 -1 -542 -14
-715 -55 -116 -27 -114 -24 -101 -94 27 -143 6 -532 -39 -737 -53 -243 -74
-267 -246 -284 l-70 -6 -17 43 c-8 24 -28 85 -43 134 -15 50 -32 95 -38 101
-25 25 -459 91 -816 123 -309 28 -304 28 -240 29 129 4 764 -61 956 -97 108
-21 104 -24 80 69 -35 137 -76 380 -76 452 0 96 21 110 123 85 34 -8 64 -13
66 -11 7 6 -128 171 -163 197 -87 67 -409 170 -721 231 -351 69 -926 125
-1140 111 -250 -16 -391 -55 -512 -141 -67 -48 -266 -215 -277 -232 -3 -5 19
-5 52 0 31 5 73 7 92 5 23 -3 52 3 85 18 61 28 174 51 319 65 118 11 600 12
756 1 56 -4 -45 -7 -250 -7 -403 -1 -624 -21 -789 -70 -50 -14 -52 -17 -46
-42 15 -59 22 -255 14 -397 -19 -326 -82 -592 -151 -634 -23 -14 -248 -42
-260 -32 -14 13 -58 185 -72 288 -34 240 -30 563 9 856 18 130 18 124 3 130
-7 3 -56 24 -108 46 -52 22 -89 41 -82 41 7 0 64 -21 125 -46 120 -50 197 -66
197 -42 0 29 -110 235 -149 279 -23 27 -59 54 -83 64 -64 25 -197 28 -293 7z
m229 -378 l69 -27 -7 -86 c-14 -179 -17 -193 -40 -187 -12 3 -73 6 -136 7 -63
0 -110 2 -105 5 6 2 9 62 7 158 -3 154 -3 154 20 159 46 10 124 -2 192 -29z
m1899 -81 c-13 -2 -33 -2 -45 0 -13 2 -3 4 22 4 25 0 35 -2 23 -4z m2950 0
c-13 -2 -33 -2 -45 0 -13 2 -3 4 22 4 25 0 35 -2 23 -4z m2950 0 c-13 -2 -33
-2 -45 0 -13 2 -3 4 22 4 25 0 35 -2 23 -4z m-6523 -120 c0 -52 -41 -428 -49
-448 -7 -18 -24 -22 -122 -33 -63 -6 -132 -14 -154 -17 -34 -5 -36 -4 -16 5
23 10 23 13 17 83 -13 148 -26 389 -21 397 3 4 42 13 87 19 46 6 94 13 108 15
14 2 53 4 88 5 61 1 62 1 62 -26z m509 21 l61 -7 -6 -221 c-4 -122 -7 -222 -8
-222 0 -1 -109 -4 -241 -6 -132 -3 -233 -4 -225 -2 11 4 14 18 13 62 -2 31 -4
132 -5 224 l-3 167 45 4 c84 7 307 7 369 1z m2441 -21 c0 -48 -49 -455 -55
-461 -3 -3 -52 -11 -108 -18 -56 -6 -124 -14 -152 -18 -34 -4 -43 -3 -29 3 24
10 24 29 0 328 -9 111 -9 154 -1 157 11 4 130 23 190 30 17 1 58 4 93 5 61 1
62 1 62 -26z m507 21 l59 -6 -4 -222 c-2 -121 -5 -222 -6 -222 0 -1 -109 -4
-241 -6 -132 -3 -232 -3 -223 -1 9 2 15 10 13 16 -2 7 -6 107 -8 224 l-4 212
46 4 c84 6 307 7 368 1z m2443 -8 c0 -31 -52 -471 -56 -475 -2 -2 -52 -10
-111 -17 -60 -6 -130 -15 -158 -18 -30 -3 -40 -2 -25 2 18 6 25 15 24 33 -6
104 -26 419 -27 434 -2 21 27 29 158 44 122 14 195 13 195 -3z m558 -1 c8 -9
-1 -432 -9 -439 -2 -2 -110 -6 -239 -8 -129 -3 -228 -4 -219 -1 13 3 14 14 9
61 -4 31 -6 131 -6 222 l1 165 40 7 c60 10 413 4 423 -7z m-5398 -43 l45 -7
14 -208 c7 -115 10 -211 7 -214 -3 -3 -86 0 -183 6 -192 14 -317 28 -267 30
17 0 31 7 31 14 1 36 15 306 18 327 1 14 3 36 4 49 l1 24 143 -7 c78 -4 162
-10 187 -14z m2877 7 c102 -11 114 -14 118 -33 7 -35 25 -399 20 -404 -5 -6
-328 16 -420 28 -33 4 -46 8 -30 9 28 1 30 4 31 39 1 71 15 297 20 335 l6 37
71 0 c39 0 122 -5 184 -11z m2950 0 l113 -12 4 -31 c3 -17 8 -89 11 -161 3
-71 8 -154 12 -184 l6 -54 -109 6 c-215 14 -390 32 -354 37 34 5 35 7 36 50 4
129 16 333 21 346 7 18 100 19 260 3z m-5337 -92 l75 -12 7 -80 c4 -44 18
-136 33 -204 14 -68 25 -124 23 -126 -2 -2 -66 7 -143 20 -77 13 -169 27 -205
31 -36 5 -55 10 -42 12 12 2 20 7 18 11 -3 4 0 38 5 76 5 39 14 108 20 155 7
47 12 95 13 108 1 20 6 22 61 21 33 0 94 -6 135 -12z m2936 2 l82 -12 11 -91
c7 -50 23 -142 37 -205 13 -63 23 -115 21 -117 -1 -2 -83 10 -182 27 -98 16
-193 30 -209 30 -29 1 -30 2 -6 8 20 5 25 12 26 41 0 19 6 76 13 125 7 50 15
116 18 148 l5 57 52 0 c28 0 88 -5 132 -11z m2950 0 l82 -12 6 -68 c4 -38 20
-130 36 -206 15 -76 27 -139 26 -140 -1 -1 -82 11 -181 28 -98 16 -193 30
-209 30 -31 2 -31 2 -3 6 15 2 25 8 22 13 -3 5 -1 48 5 97 6 48 16 123 21 167
5 43 12 82 15 87 7 12 83 11 180 -2z m-4419 -335 c-3 -3 -12 -4 -19 -1 -8 3
-5 6 6 6 11 1 17 -2 13 -5z"/>
<path d="M1629 2107 c-74 -31 -122 -69 -159 -125 -118 -178 -51 -410 143 -498
168 -76 365 -1 444 170 23 51 28 74 28 141 0 67 -5 89 -28 137 -59 120 -165
190 -297 196 -61 2 -86 -2 -131 -21z m165 -258 c52 -41 23 -129 -43 -129 -71
0 -101 80 -47 127 33 28 56 29 90 2z"/>
<path d="M1721 1834 c-28 -20 -28 -69 0 -84 31 -17 68 -4 75 27 13 48 -35 85
-75 57z"/>
<path d="M2500 2121 c-243 -80 -331 -370 -166 -549 54 -59 103 -89 178 -108
238 -61 465 166 404 404 -27 105 -98 192 -191 233 -54 24 -179 35 -225 20z
m143 -278 c23 -22 22 -78 -3 -103 -30 -30 -83 -27 -109 6 -24 30 -26 43 -10
78 21 46 81 55 122 19z"/>
<path d="M2567 1839 c-31 -18 -40 -48 -22 -75 28 -43 95 -22 95 30 0 36 -42
62 -73 45z"/>
<path d="M3780 1991 c-49 -10 -110 -44 -141 -78 -78 -83 -97 -211 -47 -308 33
-63 69 -98 133 -127 67 -30 151 -29 223 2 206 89 207 399 2 489 -54 23 -122
32 -170 22z m98 -224 c17 -13 15 -72 -2 -86 -24 -20 -79 -9 -92 18 -30 59 40
110 94 68z"/>
<path d="M3806 1754 c-9 -8 -16 -22 -16 -29 0 -17 27 -45 44 -45 15 0 46 32
46 48 0 15 -29 42 -45 42 -7 0 -21 -7 -29 -16z"/>
<path d="M4670 1987 c-126 -35 -201 -133 -201 -262 0 -136 83 -236 219 -266
126 -27 264 54 307 180 68 200 -123 405 -325 348z m119 -239 c13 -23 13 -29
-2 -52 -24 -36 -82 -37 -98 -2 -35 76 59 126 100 54z"/>
<path d="M4706 1748 c-13 -19 -14 -25 -2 -43 18 -26 40 -30 60 -10 20 21 20
39 0 59 -21 22 -40 20 -58 -6z"/>
<path d="M5577 1990 c-52 -13 -86 -33 -126 -72 -171 -167 -54 -460 184 -462
79 0 129 18 183 68 176 161 84 446 -153 470 -27 3 -67 1 -88 -4z m97 -221 c30
-23 33 -54 9 -81 -33 -37 -103 -13 -103 35 0 27 9 40 35 55 27 15 28 15 59 -9z"/>
<path d="M5612 1758 c-34 -34 6 -90 48 -68 35 19 20 80 -20 80 -9 0 -21 -5
-28 -12z"/>
<path d="M6723 1990 c-116 -24 -213 -144 -213 -264 0 -167 162 -301 322 -267
136 30 219 130 219 267 0 108 -51 194 -144 238 -61 29 -125 38 -184 26z m105
-228 c15 -19 16 -47 2 -73 -15 -28 -74 -26 -94 3 -22 31 -20 45 9 74 27 27 59
26 83 -4z"/>
<path d="M6756 1754 c-20 -20 -20 -38 0 -59 20 -20 42 -16 60 10 12 18 11 24
-2 43 -18 26 -37 28 -58 6z"/>
<path d="M7627 1989 c-129 -31 -210 -133 -210 -264 0 -152 115 -267 268 -269
106 -1 193 53 243 149 51 100 27 240 -55 316 -63 59 -166 88 -246 68z m104
-225 c15 -18 15 -60 -1 -79 -16 -19 -74 -20 -89 -1 -7 8 -11 30 -9 48 5 51 66
71 99 32z"/>
<path d="M7656 1754 c-9 -8 -16 -21 -16 -28 0 -15 32 -46 48 -46 15 0 42 29
42 45 0 18 -27 45 -45 45 -7 0 -21 -7 -29 -16z"/>
<path d="M8518 1986 c-100 -28 -173 -105 -193 -204 -12 -61 -4 -136 21 -184
23 -44 83 -99 133 -121 57 -25 159 -27 213 -4 95 40 168 150 168 252 0 100
-74 213 -164 250 -50 21 -126 26 -178 11z m107 -221 c29 -28 31 -42 9 -73 -18
-26 -65 -30 -88 -6 -36 35 -7 98 47 103 4 1 19 -10 32 -24z"/>
<path d="M8562 1758 c-34 -34 6 -90 48 -68 26 14 26 56 1 70 -25 13 -34 13
-49 -2z"/>
<path d="M9685 1994 c-90 -23 -158 -74 -198 -149 -31 -57 -31 -183 0 -241 26
-49 92 -110 142 -132 53 -22 156 -20 212 5 53 24 109 78 136 131 25 51 25 183
0 234 -26 51 -83 107 -131 129 -44 19 -128 31 -161 23z m68 -215 c28 -15 37
-28 37 -56 0 -48 -64 -71 -102 -36 -26 23 -22 58 8 82 31 25 29 24 57 10z"/>
<path d="M9708 1759 c-24 -14 -23 -56 2 -69 42 -22 82 34 48 68 -14 14 -27 15
-50 1z"/>
<path d="M10573 1990 c-116 -24 -213 -145 -213 -265 0 -52 27 -128 61 -168 90
-108 233 -133 356 -61 140 81 168 282 59 411 -54 64 -173 101 -263 83z m105
-222 c15 -13 16 -70 0 -86 -21 -21 -75 -15 -92 10 -22 31 -20 45 9 74 26 25
52 26 83 2z"/>
<path d="M10606 1754 c-20 -20 -20 -38 0 -59 20 -20 42 -16 60 10 12 18 11 24
-2 43 -18 26 -37 28 -58 6z"/>
<path d="M11467 1986 c-222 -61 -273 -356 -84 -483 91 -61 208 -64 297 -8 145
93 170 292 52 418 -62 66 -176 98 -265 73z m114 -222 c15 -19 15 -60 -1 -79
-21 -25 -82 -16 -96 14 -30 60 54 117 97 65z"/>
<path d="M11507 1752 c-10 -10 -17 -23 -17 -29 0 -13 33 -43 48 -43 15 0 42
29 42 45 0 17 -27 45 -44 45 -7 0 -20 -8 -29 -18z"/>
<path d="M286 1328 c-10 -13 -16 -43 -16 -73 0 -30 6 -60 16 -73 15 -21 21
-22 184 -22 202 0 200 -1 200 99 0 39 -5 72 -12 79 -8 8 -64 12 -184 12 -167
0 -173 -1 -188 -22z"/>
<path d="M1276 1334 c-11 -11 -16 -34 -16 -78 0 -95 2 -96 203 -96 198 0 197
0 197 95 0 95 1 95 -200 95 -140 0 -171 -3 -184 -16z"/>
<path d="M2262 1338 c-7 -7 -12 -40 -12 -79 0 -100 -2 -99 199 -99 199 0 201
1 201 97 0 92 -2 93 -206 93 -119 0 -174 -4 -182 -12z"/>
<path d="M3252 1338 c-7 -7 -12 -41 -12 -85 0 -61 3 -74 19 -83 11 -6 90 -10
184 -10 193 0 192 -1 192 95 0 96 2 95 -199 95 -120 0 -176 -4 -184 -12z"/>
<path d="M4239 1333 c-9 -10 -14 -40 -14 -78 0 -96 -2 -95 200 -95 202 0 199
-2 199 95 0 97 3 95 -199 95 -148 0 -174 -2 -186 -17z"/>
<path d="M5227 1332 c-22 -24 -23 -119 -1 -150 15 -21 21 -22 184 -22 202 0
200 -1 200 99 0 39 -5 72 -12 79 -8 8 -63 12 -183 12 -154 0 -174 -2 -188 -18z"/>
<path d="M6216 1334 c-11 -11 -16 -34 -16 -78 0 -95 2 -96 202 -96 196 0 198
1 198 98 0 92 0 92 -200 92 -140 0 -171 -3 -184 -16z"/>
<path d="M7202 1338 c-7 -7 -12 -40 -12 -79 0 -100 -2 -99 200 -99 198 0 200
1 200 101 0 87 -4 89 -206 89 -119 0 -174 -4 -182 -12z"/>
<path d="M8189 1334 c-7 -9 -13 -41 -13 -79 0 -97 -3 -95 199 -95 202 0 200
-1 200 95 0 96 2 95 -200 95 -145 0 -175 -3 -186 -16z"/>
<path d="M9179 1333 c-9 -10 -14 -40 -14 -78 0 -96 -1 -95 192 -95 94 0 173 4
184 10 16 9 19 22 19 83 0 44 -5 78 -12 85 -8 8 -64 12 -184 12 -147 0 -173
-2 -185 -17z"/>
<path d="M10167 1332 c-25 -27 -23 -133 1 -155 27 -24 342 -25 366 -1 20 19
22 144 4 162 -8 8 -63 12 -183 12 -154 0 -174 -2 -188 -18z"/>
<path d="M11156 1334 c-11 -11 -16 -35 -16 -79 0 -95 -1 -95 199 -95 200 0
201 1 201 98 0 92 0 92 -200 92 -140 0 -171 -3 -184 -16z"/>
<path d="M12142 1338 c-7 -7 -12 -40 -12 -79 0 -100 -2 -99 200 -99 163 0 169
1 184 22 10 13 16 43 16 73 0 30 -6 60 -16 73 -15 21 -21 22 -188 22 -120 0
-176 -4 -184 -12z"/>
<path d="M0 1255 l0 -46 123 3 122 3 3 43 3 42 -125 0 -126 0 0 -45z"/>
<path d="M700 1255 l0 -45 265 0 265 0 0 45 0 45 -265 0 -265 0 0 -45z"/>
<path d="M1690 1255 l0 -45 265 0 265 0 0 45 0 45 -265 0 -265 0 0 -45z"/>
<path d="M2674 1276 c-3 -14 -3 -34 1 -45 6 -21 12 -21 271 -21 l264 0 0 45 0
45 -265 0 -265 0 -6 -24z"/>
<path d="M3660 1255 l0 -45 270 0 270 0 0 45 0 45 -270 0 -270 0 0 -45z"/>
<path d="M4650 1255 l0 -45 267 2 c250 3 268 4 271 21 2 10 1 29 -2 43 l-6 24
-265 0 -265 0 0 -45z"/>
<path d="M5640 1255 l0 -45 265 0 265 0 0 45 0 45 -265 0 -265 0 0 -45z"/>
<path d="M6630 1255 l0 -45 265 0 265 0 0 45 0 45 -265 0 -265 0 0 -45z"/>
<path d="M7614 1276 c-3 -14 -4 -33 -2 -43 3 -17 21 -18 271 -21 l267 -2 0 45
0 45 -265 0 -265 0 -6 -24z"/>
<path d="M8600 1255 l0 -45 270 0 270 0 0 45 0 45 -270 0 -270 0 0 -45z"/>
<path d="M9590 1255 l0 -45 264 0 c259 0 265 0 271 21 4 11 4 31 1 45 l-6 24
-265 0 -265 0 0 -45z"/>
<path d="M10580 1255 l0 -45 265 0 265 0 0 45 0 45 -265 0 -265 0 0 -45z"/>
<path d="M11570 1255 l0 -45 265 0 265 0 0 45 0 45 -265 0 -265 0 0 -45z"/>
<path d="M12552 1258 l3 -43 123 -3 122 -3 0 46 0 45 -126 0 -125 0 3 -42z"/>
</g>
</svg>
